# Blender 5.0.1
# www.blender.org
mtllib Untitled.mtl
o Suzanne
v -0.484034 0.573131 -0.069247
v 0.484034 0.573131 -0.069247
v 0.103827 0.624327 -0.213831
v -0.100956 0.626049 -0.213084
v 0.393837 0.754905 -0.444438
v -0.278507 0.557027 -0.512249
v -0.393098 0.755944 -0.443881
v 0.400844 0.481982 -0.413631
v -0.556448 0.501346 -0.359960
v 0.633369 0.543842 -0.289503
v -0.318941 0.796836 -0.182883
v 0.320532 0.796012 -0.182870
v -0.000000 0.809954 0.118911
v 0.073286 -0.653605 0.339805
v -0.377194 0.554351 0.934974
v 0.249936 0.623620 0.172336
v -0.262416 0.742563 -0.452177
v 0.246989 0.739793 -0.626198
v -0.000000 0.763916 0.130690
v -0.000000 0.751471 0.076867
v -0.788297 0.499429 -0.077410
v -0.816663 0.603857 -0.443065
v -0.249049 0.696481 -0.816339
v -0.004906 0.696711 -0.453524
v -0.091305 0.799583 0.050303
v 0.115383 0.792122 0.107434
v -0.101798 0.791912 0.222056
v -0.001748 0.765378 0.779155
v -0.412973 0.716688 -0.451247
v -0.553093 0.668859 -0.319087
v -0.414005 0.708820 -0.148776
v 0.308409 0.774892 -0.454223
v 0.222894 0.742588 -0.196346
v 0.414528 0.688867 -0.128359
v 0.560609 0.653691 -0.306685
v -0.219586 0.739885 -0.194880
v 0.250629 0.633360 -0.829160
v -0.720984 0.322926 -0.461039
v 0.889123 0.464913 -0.280090
v -0.345166 0.101415 -0.976847
v -0.844113 -0.478667 -0.487000
v -0.249663 0.446663 0.236081
v 0.369324 0.592081 0.937874
v 0.169166 0.331577 0.421105
v 0.296324 -0.833068 -0.610856
v 0.465608 0.074887 -0.910676
v 0.717688 0.324178 -0.466556
v -0.635407 -0.341320 0.119597
v -1.188433 -0.446067 0.006329
v 0.914063 -0.282118 -0.400629
v 0.761512 -0.246833 0.015592
v -0.983413 -0.378874 -0.270378
v -0.785826 -0.252580 0.011436
v -0.851212 -0.222165 -0.345924
v 1.149961 -0.455299 -0.326818
v -1.213064 -0.465904 -0.407333
v 1.291283 -0.505339 -0.425042
v 1.188219 -0.461303 0.017876
v 0.696472 -0.368068 0.093665
vn 0.6385 0.7674 0.0583
vn -0.8113 0.5672 0.1416
vn -0.5709 0.7713 -0.2812
vn 0.5671 0.7737 -0.2824
vn 0.6537 0.5538 -0.5157
vn -0.4838 0.0220 -0.8749
vn 0.4868 -0.0856 -0.8693
vn -0.3759 0.5581 0.7398
vn -0.4282 0.7972 -0.4257
vn -0.2408 0.9642 -0.1108
vn 0.1735 0.9778 -0.1174
vn -0.2427 0.9613 -0.1306
vn 0.4965 0.8267 -0.2645
vn -0.3527 0.8922 0.2822
vn 0.7417 0.6524 0.1561
vn -0.0066 0.9866 -0.1632
vn -0.0350 0.6332 0.7732
vn 0.3842 0.9174 0.1035
vn -0.4472 0.8860 0.1225
vn -1.0000 -0.0000 -0.0000
vn 0.4777 0.5128 -0.7133
vn -0.3831 0.8828 0.2719
vn 0.5153 0.7308 -0.4476
vn 0.7243 0.4752 0.4996
vn -0.4567 0.8736 0.1680
vn 0.1657 -0.9704 -0.1755
vn 0.6672 0.1530 -0.7290
vn 0.0437 -0.8988 0.4362
vn -0.3012 -0.9492 0.0913
vn -0.2442 -0.4944 -0.8342
vn 0.8007 0.1978 -0.5655
vn -0.7712 0.1386 -0.6214
vn -0.4545 -0.8760 -0.1615
vn 0.4441 -0.8448 -0.2983
vn -0.9326 0.1538 -0.3266
vn 0.4796 -0.1184 0.8695
vn 0.6306 -0.7624 0.1450
vn -0.4662 -0.8147 0.3449
vn 0.3218 0.9466 -0.0192
vn -0.1063 0.9909 -0.0826
vn 0.4995 0.8106 0.3056
vn 0.9380 -0.0245 0.3459
vn -0.5703 0.8031 0.1727
vn -0.9832 0.0182 0.1815
vn 0.5585 0.8184 0.1353
vn 0.4490 0.8929 -0.0343
vn -0.4299 0.8972 -0.1007
vn -0.1706 0.4712 -0.8654
vn 0.1788 -0.9832 0.0365
vn 0.6570 0.6640 0.3571
vn -0.7922 0.6085 0.0471
vn -0.3176 0.2353 0.9186
vn 0.3127 0.2365 0.9199
vn -0.5894 -0.1055 -0.8009
vn 0.7959 0.5972 -0.0995
vn -0.8995 0.3762 -0.2221
vn 0.4472 0.8265 0.3419
vn 0.5310 0.7543 -0.3860
vn -0.2427 0.9701 0.0073
vn -0.3926 0.9195 -0.0185
vn -0.3422 -0.0119 0.9396
vn 0.1752 0.9844 -0.0189
vn 0.0220 0.9988 0.0436
vn 0.0094 0.5837 -0.8119
vn -0.1167 -0.9472 0.2985
vn 0.0233 0.9987 0.0460
vn -0.9191 0.3921 -0.0386
vn 0.1605 0.9427 0.2924
vn 0.2462 -0.1119 0.9627
vn 0.5652 0.7452 -0.3539
vn -0.5304 -0.1270 -0.8381
vn -0.9468 -0.3213 -0.0183
vn 0.9090 -0.3857 -0.1577
vn 0.2001 0.6741 -0.7110
vn 0.4874 -0.8301 0.2710
vn -0.2836 -0.9522 0.1132
vn 0.0664 -0.3240 -0.9437
vn 0.5671 -0.3517 -0.7448
vn -0.5023 0.1096 0.8577
vn -0.3716 0.7237 -0.5815
vn 0.6742 0.1395 -0.7252
vn -0.9528 0.1753 -0.2478
vn 0.6505 0.2533 0.7160
vn -0.3541 -0.9210 -0.1623
vn 0.1142 0.4939 0.8620
vn 0.1802 -0.9386 0.2943
vn -0.3413 0.9396 -0.0247
vn 0.2180 0.4430 0.8696
vn -0.2654 0.5310 0.8047
vn 0.0130 -0.9762 0.2166
vt 0.876541 0.592647
vt 0.855497 0.629532
vt 0.781448 0.527061
vt 0.848505 0.875897
vt 0.885339 0.855258
vt 0.966920 0.911934
vt 0.913858 0.712211
vt 0.766181 0.817419
vt 0.917660 0.766841
vt 0.904220 0.518206
vt 0.315697 0.243588
vt 0.395670 0.135930
vt 0.481180 0.198122
vt 0.501381 0.387975
vt 0.586825 0.350687
vt 0.597404 0.403247
vt 0.585978 0.311324
vt 0.418037 0.312642
vt 0.406368 0.394036
vt 0.327061 0.317007
vt 0.686911 0.283383
vt 0.608310 0.296086
vt 0.392523 0.295979
vt 0.521664 0.186010
vt 0.595813 0.168630
vt 0.573207 0.285679
vt 0.428270 0.284310
vt 0.531261 0.065855
vt 0.498850 0.083587
vt 0.468665 0.062782
vt 0.481006 0.170241
vt 0.500000 0.192167
vt 0.500000 0.203867
vt 0.500000 0.197278
vt 0.593347 0.281299
vt 0.406653 0.281173
vt 0.403546 0.309479
vt 0.702593 0.332748
vt 0.621745 0.074837
vt 0.520125 0.029824
vt 0.380697 0.027237
vt 0.167844 0.207404
vt 0.124438 0.353880
vt 0.007141 0.196676
vt 0.855079 0.336210
vt 0.748849 0.323249
vt 0.808890 0.206472
vt 0.248979 0.320844
vt 0.802929 0.475819
vt 0.734532 0.447084
vt 0.265611 0.446814
vt 0.206279 0.465018
vt 0.199606 0.202260
vt 0.846675 0.049571
vt 0.784330 0.178082
vt 0.825762 0.147055
vt 0.956426 0.202762
vt 0.159908 0.032776
vt 0.195001 0.151137
vt 0.538708 0.805879
vt 0.571510 0.725280
vt 0.696296 0.707556
vt 0.674150 0.815538
vt 0.418214 0.863717
vt 0.318905 0.903519
vt 0.128065 0.802240
vt 0.312444 0.714197
vt 0.214801 0.178280
vt 0.442034 0.714031
vt 0.255119 0.811296
vt 0.187129 0.734549
vt 0.030670 0.553627
vt 0.106907 0.584723
vt 0.039093 0.699621
vt 0.184976 0.594008
vt 0.757430 0.638186
vt 0.840055 0.974229
vt 0.262986 0.322234
vt 0.917611 0.401774
vt 0.686998 0.563174
vt 0.559167 0.585862
s 0
f 5/1/1 12/2/1 10/3/1
f 11/4/2 7/5/2 9/6/2
f 12/2/3 5/1/3 3/7/3
f 7/5/4 11/4/4 4/8/4
f 7/5/5 4/8/5 6/9/5
f 7/5/6 6/9/6 9/6/6
f 10/3/7 8/10/7 5/1/7
f 21/11/8 42/12/8 25/13/8
f 24/14/9 18/15/9 37/16/9
f 18/15/10 24/14/10 32/17/10
f 17/18/11 24/14/11 23/19/11
f 22/20/12 17/18/12 23/19/12
f 39/21/13 18/15/13 35/22/13
f 21/11/14 30/23/14 22/20/14
f 26/24/15 16/25/15 33/26/15
f 33/26/16 36/27/16 26/24/16
f 43/28/17 28/29/17 15/30/17
f 26/24/18 28/29/18 43/28/18
f 28/29/19 27/31/19 15/30/19
f 13/32/20 20/33/20 19/34/20
f 13/32/21 20/33/21 25/13/21
f 20/33/22 26/24/22 36/27/22
f 25/13/23 20/33/23 36/27/23
f 16/25/24 35/22/24 34/35/24
f 30/23/25 21/11/25 31/36/25
f 17/18/26 30/23/26 29/37/26
f 39/21/27 47/38/27 37/16/27
f 44/39/28 43/28/28 15/40/28
f 44/41/29 15/30/29 42/12/29
f 41/42/30 40/43/30 45/44/30
f 46/45/31 47/46/31 50/47/31
f 38/48/32 40/43/32 41/42/32
f 24/49/33 37/50/33 47/46/33
f 23/51/34 24/52/34 38/48/34
f 41/42/35 54/53/35 38/48/35
f 14/54/36 51/55/36 44/39/36
f 59/56/37 45/57/37 50/47/37
f 41/42/38 14/58/38 48/59/38
f 55/60/39 58/61/39 57/62/39
f 36/27/40 33/26/40 32/17/40 24/14/40
f 55/60/41 57/63/41 50/64/41
f 39/21/42 51/55/42 50/47/42
f 54/65/43 56/66/43 53/67/43
f 21/11/44 54/53/44 53/68/44
f 51/69/45 55/60/45 50/64/45
f 58/61/46 55/60/46 51/69/46
f 52/70/47 49/71/47 53/67/47
f 54/72/48 41/73/48 56/74/48
f 49/71/49 56/74/49 48/75/49
f 10/3/50 12/2/50 2/76/50
f 1/77/51 11/4/51 9/6/51
f 2/76/52 12/2/52 3/7/52
f 4/8/53 11/4/53 1/77/53
f 5/1/54 8/10/54 3/7/54
f 16/25/55 26/24/55 43/28/55
f 15/30/56 27/31/56 42/12/56
f 16/25/57 39/21/57 35/22/57
f 37/16/58 18/15/58 39/21/58
f 22/20/59 30/23/59 17/18/59
f 25/13/60 36/27/60 21/11/60
f 14/58/61 44/41/61 42/12/61 48/59/61
f 36/27/62 24/14/62 17/18/62
f 26/24/63 27/31/63 28/29/63
f 13/32/64 26/24/64 20/33/64
f 25/13/65 26/24/65 13/32/65
f 27/31/66 26/24/66 25/13/66
f 27/31/67 25/13/67 42/12/67
f 33/26/68 16/25/68 34/35/68
f 31/36/69 21/11/69 36/27/69
f 18/15/70 32/17/70 35/22/70
f 22/20/71 23/19/71 38/78/71
f 21/11/72 22/20/72 38/48/72
f 16/25/73 43/28/73 44/39/73
f 40/79/74 24/49/74 47/46/74 46/45/74
f 45/57/75 59/56/75 14/54/75
f 41/42/76 45/44/76 14/58/76
f 40/79/77 46/45/77 45/57/77
f 45/57/78 46/45/78 50/47/78
f 53/68/79 48/59/79 42/12/79 21/11/79
f 38/48/80 24/52/80 40/43/80
f 39/21/81 50/47/81 47/46/81
f 38/48/82 54/53/82 21/11/82
f 44/39/83 51/55/83 39/21/83 16/25/83
f 50/80/84 57/62/84 58/61/84 59/81/84
f 14/54/85 59/56/85 51/55/85
f 53/67/86 56/66/86 52/70/86
f 52/70/87 56/66/87 49/71/87
f 58/61/88 51/69/88 59/81/88
f 48/75/89 53/67/89 49/71/89
f 48/75/90 56/74/90 41/73/90
